<svg width="32px" height="44px" viewBox="0 0 32 44" version="1.1" xmlns="http://www.w3.org/2000/svg" xmlns:xlink="http://www.w3.org/1999/xlink"><g id="Page-1" stroke="none" stroke-width="1" fill="none" fill-rule="evenodd"><g id="Basketball%20Jersey-595b40b75ba036ed117d5576" transform="translate(0.000000, -1.000000)" fill="#000000" fill-rule="nonzero"><path d="M10.136719,1.0039062 C10.046516,1.0129687 9.957594,1.0338594 9.871094,1.0683594 L4.828125,2.015625 C4.352125,2.101625 4.007812,2.516 4.007812,3 L4.007812,8.59375 C4.007812,12.54375 2.619922,16.311828 0.2949219,18.673828 C0.1109219,18.860828 0.0078125,19.112 0.0078125,19.375 L0.0078125,44 C0.0078125,44.553 0.4548125,45 1.007812,45 L30.992188,45 C31.545187,45 31.992188,44.553 31.992188,44 L31.992188,19.359375 C31.992188,19.098375 31.891031,18.847156 31.707031,18.660156 C29.355031,16.263156 28,12.59475 28,8.59375 L28,3 C28,2.517 27.660547,2.102625 27.185547,2.015625 L22.287109,1.1289062 L22.146484,1.0703125 C21.826134,0.9440295 21.461435,1.0045837 21.185547,1.2050781 C21.164318,1.2205054 21.139218,1.2289461 21.119141,1.2460938 L21.042969,1.3066406 C20.390519,1.8142388 18.289858,3.09375 16.007812,3.09375 C13.71447,3.09375 11.598109,1.7991437 10.957031,1.296875 C10.927339,1.2733954 10.897873,1.2494353 10.896484,1.2480469 C10.684234,1.0620469 10.407328,0.9767188 10.136719,1.0039062 Z M11.064453,3.6582031 C12.274489,4.3663969 13.864297,5.09375 16.007812,5.09375 C18.152252,5.09375 19.741137,4.3666605 20.951172,3.6582031 C20.960772,3.8066086 21.007812,3.9426032 21.007812,4.09375 C21.007812,4.3005625 20.99757,4.5035999 20.980469,4.7050781 C20.867528,6.035684 20.380934,7.2281089 19.662109,8.158203 C19.615507,8.218213 19.577855,8.288073 19.529297,8.345703 C19.42175,8.473979 19.310191,8.596677 19.193359,8.712891 C19.190768,8.715468 19.188143,8.718132 19.185547,8.720703 C19.095724,8.809686 19.001159,8.891238 18.90625,8.972656 C18.866305,9.006759 18.827879,9.043467 18.787109,9.076172 C18.722494,9.128238 18.654585,9.174167 18.587891,9.222656 C18.514746,9.275625 18.442583,9.330397 18.367188,9.378906 C18.32221,9.407933 18.274301,9.431579 18.228516,9.458984 C18.129203,9.518276 18.030399,9.579438 17.927734,9.630859 C17.884857,9.652355 17.840344,9.669363 17.796875,9.689453 C17.690854,9.738456 17.58365,9.787735 17.474609,9.828125 C17.422239,9.847458 17.367535,9.859652 17.314453,9.876953 C17.207636,9.911926 17.101376,9.948123 16.992188,9.974609 C16.83595,10.012508 16.677918,10.042669 16.517578,10.0625 C16.516937,10.062578 16.516266,10.062422 16.515625,10.0625 C16.348373,10.082863 16.179467,10.09375 16.007812,10.09375 C15.83681,10.09375 15.666635,10.08271 15.5,10.0625 C15.498724,10.062343 15.49737,10.062658 15.496094,10.0625 C15.336124,10.042949 15.178629,10.011894 15.023438,9.974609 C14.89041,9.942341 14.760319,9.90029 14.630859,9.855469 C14.602605,9.845687 14.57299,9.840444 14.544922,9.830078 C14.392071,9.773631 14.240548,9.708013 14.09375,9.634766 C13.953161,9.564616 13.815855,9.485192 13.681641,9.400391 C13.673197,9.395055 13.664667,9.390157 13.65625,9.384766 C13.543704,9.312673 13.435599,9.232338 13.328125,9.150391 C13.298702,9.127956 13.267301,9.109089 13.238281,9.085938 C13.163067,9.025932 13.09192,8.959248 13.019531,8.894531 C12.95983,8.840924 12.8994,8.789102 12.841797,8.732422 C12.791803,8.683452 12.745667,8.629367 12.697266,8.578125 C12.628223,8.504687 12.55775,8.433315 12.492188,8.355469 C12.407282,8.255106 12.340595,8.134885 12.261719,8.027344 C12.123474,7.8380954 11.979146,7.6544031 11.861328,7.4453125 C11.681439,7.1260645 11.52707,6.7845859 11.400391,6.4257812 C11.337256,6.246961 11.281083,6.0640917 11.232422,5.8769531 C11.229111,5.86422 11.227851,5.8506598 11.224609,5.8378906 C11.180206,5.6629946 11.140458,5.4859079 11.109375,5.3046875 C11.090949,5.1972582 11.081915,5.0859872 11.068359,4.9765625 C11.057833,4.8902155 11.042611,4.8064286 11.035156,4.71875 C11.01775,4.514038 11.007812,4.3051076 11.007812,4.09375 C11.007812,3.94231 11.054843,3.8066676 11.064453,3.6582031 Z" id="Shape"></path></g></g></svg>